<svg width="48" height="48" viewBox="0 0 48 48" fill="none" xmlns="http://www.w3.org/2000/svg">
<path d="M11.0833 36.9167V18.8333M47.25 13.6667V34.3333C47.25 37.759 45.8891 41.0444 43.4668 43.4668C41.0444 45.8891 37.759 47.25 34.3333 47.25H13.6667C10.241 47.25 6.95555 45.8891 4.5332 43.4668C2.11086 41.0444 0.75 37.759 0.75 34.3333V13.6667C0.75 10.241 2.11086 6.95555 4.5332 4.5332C6.95555 2.11086 10.241 0.75 13.6667 0.75H34.3333C37.759 0.75 41.0444 2.11086 43.4668 4.5332C45.8891 6.95555 47.25 10.241 47.25 13.6667Z" stroke="black" stroke-width="1.5" stroke-linecap="round" stroke-linejoin="round"/>
<path d="M21.4167 36.9167V28.5208M21.4167 28.5208V18.8333M21.4167 28.5208C21.4167 18.8333 36.9167 18.8333 36.9167 28.5208V36.9167M11.0833 11.1092L11.1092 11.0807" stroke="black" stroke-width="1.5" stroke-linecap="round" stroke-linejoin="round"/>
</svg>
