<svg width="66" height="66" viewBox="0 0 66 66" fill="none" xmlns="http://www.w3.org/2000/svg">
<path d="M33 44C35.9175 44 38.7153 42.8411 40.7781 40.7781C42.8411 38.7153 44 35.9175 44 33C44 30.0825 42.8411 27.2847 40.7781 25.2218C38.7153 23.1589 35.9175 22 33 22C30.0825 22 27.2847 23.1589 25.2218 25.2218C23.1589 27.2847 22 30.0825 22 33C22 35.9175 23.1589 38.7153 25.2218 40.7781C27.2847 42.8411 30.0825 44 33 44Z" stroke="black" stroke-width="1.5" stroke-linecap="round" stroke-linejoin="round"/>
<path d="M8.25 44V22C8.25 18.3533 9.69864 14.8559 12.2773 12.2773C14.8559 9.69864 18.3533 8.25 22 8.25H44C47.6468 8.25 51.1442 9.69864 53.7226 12.2773C56.3013 14.8559 57.75 18.3533 57.75 22V44C57.75 47.6468 56.3013 51.1442 53.7226 53.7226C51.1442 56.3013 47.6468 57.75 44 57.75H22C18.3533 57.75 14.8559 56.3013 12.2773 53.7226C9.69864 51.1442 8.25 47.6468 8.25 44Z" stroke="black" stroke-width="1.5"/>
<path d="M48.125 17.9014L48.1515 17.8722" stroke="black" stroke-width="1.5" stroke-linecap="round" stroke-linejoin="round"/>
</svg>
